{"glyphs":{":":{"x_min":0,"x_max":175,"ha":175,"o":"m 69 283 q 71 297 82 306 q 94 316 107 316 q 119 316 128 306 q 136 297 134 283 q 132 269 121 260 q 110 250 97 250 q 84 250 76 260 q 67 269 69 283 z m 34 33 q 36 47 48 56 q 59 66 72 66 q 84 66 92 56 q 101 47 99 33 q 97 19 86 10 q 75 0 62 0 q 49 0 40 10 q 32 19 34 33 z"},"$":{"x_min":0,"x_max":567,"ha":567,"o":"m 388 546 l 401 634 q 386 645 362 653 q 337 661 303 663 l 265 387 q 298 376 330 364 q 363 351 388 329 q 412 307 424 273 q 437 239 431 186 q 425 144 405 109 q 385 74 355 49 q 325 24 288 10 q 250 -5 209 -7 l 200 -68 l 159 -68 l 167 -6 q 132 -4 104 4 q 77 13 56 25 q 34 37 20 50 q 5 64 -2 76 l 12 182 l 52 182 l 39 92 q 61 69 93 52 q 125 36 173 34 l 219 357 q 190 366 164 378 q 137 389 118 406 q 98 424 88 450 q 78 477 82 517 q 85 548 98 580 q 111 611 134 637 q 157 663 190 681 q 224 699 268 702 l 276 764 l 317 764 l 309 703 q 341 701 378 691 q 414 681 443 654 l 428 546 z m 388 184 q 394 224 385 251 q 376 278 357 296 q 338 313 312 324 q 287 335 259 344 l 214 34 q 245 37 274 48 q 303 60 327 79 q 351 98 367 124 q 383 151 388 184 z m 125 524 q 121 495 128 476 q 135 456 149 442 q 163 428 182 418 q 202 409 225 401 l 262 660 q 232 657 208 644 q 184 632 167 614 q 150 595 139 572 q 128 549 125 524 z"},"?":{"x_min":0,"x_max":452,"ha":452,"o":"m 100 578 q 92 582 82 585 q 73 588 65 591 q 77 617 97 642 q 117 667 144 687 q 170 707 203 720 q 236 732 276 732 q 317 732 351 716 q 385 701 408 674 q 430 648 440 612 q 451 577 445 537 q 437 483 405 442 q 373 400 322 368 q 303 355 286 345 q 268 335 254 322 q 239 310 228 291 q 217 272 213 242 l 202 164 l 160 164 l 174 261 q 178 292 192 312 q 206 331 226 346 q 245 361 270 374 q 294 388 321 408 q 358 435 378 468 q 397 500 402 537 q 406 570 398 598 q 391 626 374 647 q 356 668 330 680 q 303 691 270 691 q 212 691 168 661 q 124 631 100 578 z m 160 15 q 148 15 139 24 q 130 34 132 48 q 134 62 146 72 q 157 81 169 81 q 181 81 190 72 q 199 62 197 48 q 195 34 184 24 q 172 15 160 15 z"},"<":{"x_min":0,"x_max":680,"ha":680,"o":"m 525 40 l 517 -15 q 416 48 316 112 q 216 175 115 238 q 233 301 351 364 q 469 428 588 491 l 580 436 q 487 386 395 337 q 303 288 209 238 q 288 188 366 139 q 445 90 525 40 z"},"'":{"x_min":0,"x_max":153,"ha":153,"o":"m 39 472 l 74 720 l 118 720 q 108 657 98 596 q 89 535 79 472 z"},"=":{"x_min":0,"x_max":708,"ha":708,"o":"m 595 176 l 589 135 l 83 135 l 89 176 z m 622 370 l 616 329 l 110 329 l 116 370 z"},"a":{"x_min":0,"x_max":538,"ha":538,"o":"m 62 188 q 68 228 88 264 q 108 299 138 326 q 169 352 207 368 q 245 383 286 383 q 315 383 340 374 q 365 366 384 352 q 403 339 416 322 q 428 304 432 287 q 435 309 440 331 q 444 353 448 375 l 482 375 l 435 40 l 509 40 l 503 0 l 392 0 l 398 40 q 400 52 401 64 q 402 75 404 86 q 395 69 378 52 q 362 35 340 22 q 317 9 290 1 q 262 -7 232 -7 q 191 -7 157 8 q 123 24 100 50 q 77 76 66 112 q 56 147 62 188 z m 104 188 q 99 156 107 128 q 115 100 133 79 q 151 58 178 46 q 204 34 237 34 q 270 34 300 46 q 330 58 354 79 q 378 100 394 128 q 409 156 414 188 q 418 220 410 248 q 402 277 384 298 q 366 319 340 331 q 313 343 280 343 q 247 343 218 331 q 188 319 164 298 q 140 277 124 248 q 108 220 104 188 z"},"L":{"x_min":0,"x_max":568,"ha":568,"o":"m 40 40 l 109 40 l 196 660 l 127 660 l 133 700 l 326 700 l 321 660 l 238 660 l 150 40 l 498 40 l 514 154 l 554 154 l 533 0 l 35 0 z"},"3":{"x_min":0,"x_max":515,"ha":515,"o":"m 171 347 l 391 609 l 183 609 l 175 549 l 135 549 l 149 650 l 472 650 l 260 404 q 300 401 333 384 q 366 368 388 341 q 411 314 422 278 q 432 243 426 201 q 420 158 398 120 q 375 82 342 54 q 310 25 270 8 q 229 -8 186 -8 q 140 -8 104 10 q 67 29 42 60 l 77 91 q 95 65 124 49 q 153 33 190 33 q 225 33 258 46 q 291 60 317 83 q 343 106 361 136 q 379 167 384 201 q 389 235 380 266 q 370 296 350 319 q 330 342 301 355 q 272 368 237 368 q 220 368 204 362 q 187 357 171 347 z"},";":{"x_min":0,"x_max":201,"ha":201,"o":"m 104 283 q 106 297 117 306 q 128 316 141 316 q 154 316 162 306 q 171 297 169 283 q 167 269 156 260 q 145 250 132 250 q 119 250 110 260 q 102 269 104 283 z m 125 86 q 96 34 68 -17 q 39 -68 10 -120 l -28 -120 q -2 -68 24 -17 q 50 34 77 86 z"},"J":{"x_min":0,"x_max":277,"ha":277,"o":"m 93 700 l 300 700 l 214 90 q 206 34 184 -8 q 162 -51 130 -80 q 98 -110 58 -126 q 19 -142 -24 -143 l -19 -103 q 17 -101 49 -87 q 81 -73 106 -48 q 132 -23 150 12 q 167 48 173 93 l 253 660 l 87 660 z"},"V":{"x_min":0,"x_max":830,"ha":830,"o":"m 137 700 l 338 700 l 333 660 l 258 660 q 299 516 339 374 q 379 232 421 89 l 425 61 l 439 89 q 519 232 599 374 q 679 516 760 660 l 691 660 l 696 700 l 897 700 l 892 660 l 802 660 q 705 486 608 314 q 510 142 413 -32 q 363 142 314 314 q 265 486 215 660 l 131 660 z"},"\"":{"x_min":0,"x_max":310,"ha":310,"o":"m 178 472 l 213 720 l 257 720 q 247 657 238 596 q 228 535 218 472 z m 45 472 l 80 720 l 124 720 q 114 657 104 596 q 95 535 85 472 z"},"7":{"x_min":0,"x_max":469,"ha":469,"o":"m 465 650 l 82 0 l 33 0 l 393 609 l 93 609 l 85 549 l 45 549 l 59 650 z"},"S":{"x_min":0,"x_max":478,"ha":478,"o":"m 48 76 l 62 182 l 102 182 l 89 92 q 114 67 152 50 q 189 32 244 32 q 277 32 310 42 q 343 53 370 72 q 396 92 414 120 q 433 148 438 184 q 444 228 434 256 q 423 284 401 302 q 379 320 350 331 q 320 342 289 352 q 258 361 228 372 q 198 383 175 401 q 152 419 140 446 q 128 474 132 517 q 135 550 150 584 q 164 617 190 644 q 216 670 254 687 q 291 704 341 704 q 375 704 417 695 q 459 686 493 654 l 478 546 l 438 546 l 451 634 q 433 646 404 655 q 375 664 334 664 q 299 664 272 652 q 244 641 224 622 q 203 602 191 576 q 179 551 175 524 q 170 488 182 465 q 194 442 216 427 q 239 412 269 402 q 299 392 330 382 q 362 372 392 358 q 421 345 443 324 q 465 302 476 269 q 487 236 481 186 q 475 142 454 106 q 432 70 400 44 q 367 19 326 6 q 286 -8 243 -8 q 204 -8 172 0 q 140 8 115 20 q 90 33 74 48 q 57 63 48 76 z"},"}":{"x_min":0,"x_max":320,"ha":320,"o":"m 357 321 l 349 275 q 320 273 302 256 q 284 238 273 214 q 262 189 256 162 q 251 136 248 118 l 228 -30 q 222 -77 210 -101 q 198 -125 183 -136 q 168 -146 150 -147 q 131 -148 112 -148 l 65 -148 l 71 -108 l 123 -108 q 138 -108 149 -102 q 160 -97 168 -84 q 175 -72 180 -51 q 185 -30 190 1 l 213 165 q 217 197 227 220 q 237 243 249 258 q 261 274 274 284 q 287 293 297 299 q 286 306 276 316 q 266 326 259 344 q 252 361 250 388 q 248 414 254 455 l 273 597 q 282 659 275 682 q 268 705 237 705 l 185 705 l 191 746 l 238 746 q 257 746 274 745 q 292 744 304 734 q 317 723 322 698 q 326 674 320 628 l 300 478 q 297 460 295 434 q 293 407 297 382 q 301 358 314 340 q 328 322 357 321 z"},"Z":{"x_min":0,"x_max":629,"ha":629,"o":"m 622 201 l 594 0 l 35 0 l 40 40 l 605 660 l 144 660 l 155 735 l 197 735 l 192 700 l 663 700 l 657 660 l 93 40 l 559 40 l 582 201 z"},"x":{"x_min":0,"x_max":503,"ha":503,"o":"m 87 375 l 280 375 l 275 335 l 213 335 l 284 214 l 388 335 l 331 335 l 336 375 l 520 375 l 515 335 l 438 335 l 306 181 q 326 145 347 110 q 368 75 389 40 l 473 40 l 468 0 l 275 0 l 280 40 l 337 40 q 319 70 302 100 q 285 129 267 158 q 242 129 217 99 q 192 69 166 40 l 224 40 l 219 0 l 35 0 l 40 40 l 114 40 q 147 78 180 116 q 213 155 247 193 q 225 228 204 264 q 183 299 162 335 l 81 335 z"},")":{"x_min":0,"x_max":400,"ha":400,"o":"m 292 290 q 281 215 258 147 q 234 79 202 21 q 171 -37 135 -84 q 99 -132 63 -165 q 56 -159 49 -154 q 42 -148 35 -142 q 68 -109 102 -64 q 136 -19 166 36 q 195 91 218 155 q 240 219 250 290 q 260 361 256 425 q 251 489 237 544 q 223 599 202 644 q 180 689 156 722 q 164 728 173 734 q 182 739 190 745 q 217 712 240 664 q 263 617 278 559 q 293 501 298 433 q 302 365 292 290 z"},"&":{"x_min":0,"x_max":700,"ha":700,"o":"m 456 375 l 600 375 l 594 334 l 493 334 l 483 266 q 481 248 478 228 q 476 208 472 188 q 468 167 461 147 q 454 127 442 108 l 492 3 l 457 -19 l 415 68 q 383 33 340 12 q 296 -8 248 -8 q 207 -8 173 8 q 139 23 116 49 q 94 75 84 110 q 73 146 79 187 q 84 223 100 256 q 117 288 142 314 q 168 339 200 356 q 232 373 268 379 l 213 496 q 199 526 196 558 q 193 590 202 621 q 212 652 234 679 q 256 706 292 726 q 323 743 352 746 q 382 750 409 745 q 436 740 460 729 q 483 718 500 706 l 478 672 q 462 682 442 692 q 423 701 402 706 q 381 710 358 708 q 336 706 314 693 q 255 659 242 608 q 229 557 252 508 l 413 168 q 431 194 435 223 z m 120 187 q 115 155 123 127 q 131 99 149 78 q 167 57 194 45 q 221 33 254 33 q 297 33 334 54 q 372 74 396 107 l 286 341 q 254 338 226 326 q 198 313 176 293 q 154 273 139 246 q 124 218 120 187 z"},"_":{"x_min":0,"x_max":600,"ha":600,"o":"m 497 0 l 97 0 l 102 41 l 502 41 z"},"v":{"x_min":0,"x_max":588,"ha":588,"o":"m 90 375 l 275 375 l 270 335 l 205 335 q 231 265 257 194 q 283 123 306 53 q 346 119 392 191 q 438 263 486 335 l 427 335 l 433 375 l 608 375 l 602 335 l 529 335 q 470 244 412 156 q 353 67 296 -23 q 261 67 228 156 q 194 244 161 335 l 84 335 z"},"O":{"x_min":0,"x_max":786,"ha":786,"o":"m 85 349 q 95 423 132 488 q 170 554 225 602 q 280 651 349 680 q 418 708 492 708 q 566 708 628 680 q 689 651 731 602 q 773 554 792 488 q 811 423 801 349 q 790 275 752 210 q 715 145 660 96 q 604 48 535 20 q 466 -8 392 -8 q 318 -8 257 20 q 196 48 154 96 q 112 145 93 210 q 74 275 85 349 z m 127 348 q 118 282 134 224 q 151 167 188 124 q 224 82 278 57 q 331 32 396 32 q 461 32 522 57 q 584 82 634 125 q 683 168 716 226 q 750 283 759 349 q 768 415 751 473 q 734 531 697 574 q 660 618 606 643 q 552 668 487 668 q 422 668 361 642 q 300 617 251 574 q 202 530 169 472 q 136 414 127 348 z"},"(":{"x_min":0,"x_max":406,"ha":406,"o":"m 134 292 q 144 367 168 435 q 191 503 222 561 q 254 619 290 666 q 326 714 362 747 q 369 741 376 736 q 383 730 390 724 q 357 691 323 646 q 289 601 260 546 q 230 491 208 427 q 186 363 176 292 q 166 221 170 157 q 174 93 188 38 q 202 -17 224 -62 q 245 -107 269 -140 q 261 -146 252 -152 q 243 -157 235 -163 q 208 -130 185 -82 q 162 -35 147 23 q 132 81 128 149 q 123 217 134 292 z"},"C":{"x_min":0,"x_max":610,"ha":610,"o":"m 612 546 l 625 632 q 595 649 560 658 q 524 668 486 668 q 421 668 360 642 q 299 617 250 574 q 202 530 169 472 q 136 414 127 348 q 118 283 134 226 q 151 168 188 125 q 224 82 277 57 q 330 32 395 32 q 440 32 482 44 q 523 55 562 76 l 581 42 q 537 19 490 6 q 443 -8 392 -8 q 318 -8 257 20 q 196 48 154 96 q 112 145 93 210 q 74 275 85 349 q 95 423 132 488 q 170 554 225 602 q 280 651 349 680 q 418 708 492 708 q 543 708 587 695 q 631 682 668 658 l 652 546 z"},"W":{"x_min":0,"x_max":1203,"ha":1203,"o":"m 137 700 l 338 700 l 333 660 l 258 660 q 299 516 338 374 q 378 232 421 89 l 425 61 q 473 161 532 260 q 591 359 646 457 q 632 508 618 558 q 603 609 588 660 l 504 660 l 510 700 l 711 700 l 705 660 l 631 660 q 671 516 711 374 q 751 232 793 89 l 798 61 l 811 89 q 892 232 972 374 q 1051 516 1132 660 l 1063 660 l 1069 700 l 1270 700 l 1265 660 l 1175 660 q 1078 486 980 314 q 882 142 785 -32 l 666 385 l 661 412 q 606 301 540 189 q 474 77 413 -32 q 363 142 314 314 q 265 486 215 660 l 131 660 z"},"A":{"x_min":0,"x_max":812,"ha":812,"o":"m 40 40 l 117 40 q 215 214 313 386 q 411 558 508 732 q 558 558 606 386 q 655 214 704 40 l 782 40 l 777 0 l 584 0 l 589 40 l 662 40 q 643 105 625 170 q 607 234 588 300 l 307 300 q 270 234 234 170 q 198 105 160 40 l 233 40 l 228 0 l 35 0 z m 500 611 l 495 639 q 494 637 492 633 q 489 629 487 624 q 484 618 481 611 q 467 585 450 552 q 432 520 412 484 q 391 449 370 412 q 349 375 330 340 l 577 340 z"},"f":{"x_min":0,"x_max":303,"ha":303,"o":"m 40 40 l 101 40 l 142 334 l 81 334 l 87 375 l 148 375 l 168 518 q 176 573 198 616 q 220 659 252 688 q 285 717 324 732 q 364 748 408 750 l 402 710 q 368 709 336 696 q 304 683 278 658 q 252 633 234 598 q 216 563 210 519 l 189 375 l 314 375 l 309 334 l 184 334 l 142 40 l 233 40 l 228 0 l 35 0 z"},"Q":{"x_min":0,"x_max":808,"ha":808,"o":"m 127 348 q 118 283 134 226 q 151 168 188 125 q 224 82 277 57 q 330 32 395 32 q 461 32 522 57 q 584 82 634 125 q 683 168 716 226 q 750 283 759 349 q 768 415 751 473 q 734 531 697 574 q 660 618 606 643 q 551 668 486 668 q 421 668 360 642 q 299 617 250 574 q 202 530 169 472 q 136 414 127 348 z m 85 349 q 95 423 132 488 q 170 554 225 602 q 280 651 349 680 q 418 708 492 708 q 566 708 628 680 q 689 651 731 602 q 773 554 792 488 q 811 423 801 349 q 793 298 772 251 q 752 204 722 164 q 691 125 652 93 q 612 61 567 40 l 780 40 l 774 0 l 467 0 q 427 -8 392 -8 q 318 -8 257 20 q 196 48 154 96 q 112 145 93 210 q 74 275 85 349 z"},"w":{"x_min":0,"x_max":848,"ha":848,"o":"m 699 375 l 868 375 l 862 335 l 794 335 q 736 244 679 156 q 622 67 565 -23 l 467 249 l 293 -23 q 260 67 228 156 q 195 244 163 335 l 84 335 l 90 375 l 269 375 l 264 335 l 205 335 q 231 264 256 194 q 281 123 304 53 q 335 105 368 156 q 400 208 432 260 l 423 335 l 358 335 l 364 375 l 549 375 l 543 335 l 477 335 q 503 264 528 194 q 553 123 576 53 q 618 124 662 194 q 707 264 752 335 l 693 335 z"},"-":{"x_min":0,"x_max":300,"ha":300,"o":"m 50 169 l 55 210 l 239 210 l 234 169 z"},"E":{"x_min":0,"x_max":571,"ha":571,"o":"m 40 40 l 112 40 l 199 660 l 127 660 l 133 700 l 620 700 l 598 546 l 558 546 l 574 660 l 241 660 l 200 373 l 535 373 l 529 333 l 194 333 l 153 40 l 501 40 l 517 154 l 557 154 l 536 0 l 35 0 z"},"s":{"x_min":0,"x_max":322,"ha":322,"o":"m 104 103 l 98 52 q 115 39 136 36 q 156 33 177 33 q 186 33 200 36 q 214 40 227 48 q 240 57 250 70 q 261 83 264 102 q 268 128 256 142 q 245 156 226 164 q 207 173 184 180 q 160 186 141 197 q 122 208 110 226 q 99 244 104 277 q 108 303 121 322 q 134 342 152 355 q 169 368 189 374 q 209 381 227 381 q 231 381 244 380 q 256 379 271 376 q 286 372 301 365 q 316 358 325 346 l 315 272 l 277 272 l 284 325 q 278 331 268 334 q 259 337 250 338 q 241 340 233 340 q 225 340 222 340 q 198 340 174 326 q 151 312 146 278 q 144 256 156 244 q 168 231 188 222 q 207 214 230 206 q 252 199 270 187 q 289 175 300 156 q 311 137 306 105 q 304 88 295 68 q 286 49 270 32 q 253 15 228 4 q 203 -8 170 -8 q 160 -8 144 -6 q 129 -5 112 -1 q 96 3 81 10 q 66 17 56 29 l 66 103 z"},">":{"x_min":0,"x_max":650,"ha":650,"o":"m 79 -15 l 87 40 q 180 90 272 139 q 365 188 459 238 q 380 288 301 337 q 222 386 143 436 l 150 491 q 251 428 351 364 q 451 301 553 238 q 434 175 316 112 q 198 48 79 -15 z"},"l":{"x_min":0,"x_max":263,"ha":263,"o":"m 40 40 l 114 40 l 208 710 l 138 710 l 143 750 l 255 750 l 155 40 l 233 40 l 228 0 l 35 0 z"},"8":{"x_min":0,"x_max":510,"ha":510,"o":"m 170 506 q 164 463 192 435 q 219 407 265 407 q 311 407 346 435 q 380 463 386 506 q 389 528 384 548 q 379 568 367 584 q 355 599 336 608 q 318 617 295 617 q 272 617 251 608 q 230 599 213 584 q 196 568 184 548 q 173 528 170 506 z m 71 201 q 66 167 74 136 q 83 106 102 82 q 121 59 149 46 q 177 32 212 32 q 247 32 280 46 q 313 59 339 82 q 365 106 382 136 q 400 167 405 201 q 410 235 401 264 q 392 294 372 316 q 352 339 323 352 q 294 366 260 366 q 225 366 193 353 q 161 340 136 318 q 110 295 93 265 q 76 235 71 201 z m 28 201 q 37 267 81 318 q 125 368 186 390 q 155 406 139 438 q 123 470 129 510 q 133 540 148 567 q 163 594 186 614 q 210 635 238 646 q 267 658 298 658 q 329 658 355 646 q 381 634 398 614 q 416 593 424 566 q 432 539 428 508 q 423 469 398 438 q 373 407 338 390 q 395 369 426 318 q 456 267 447 201 q 441 158 418 120 q 396 82 364 54 q 331 25 290 8 q 250 -8 207 -8 q 164 -8 128 8 q 93 25 68 54 q 44 82 33 120 q 22 158 28 201 z"},"\\":{"x_min":0,"x_max":346,"ha":346,"o":"m 109 736 q 152 546 194 358 q 237 171 280 -19 l 234 -19 q 191 171 148 358 q 106 546 63 736 z"},"e":{"x_min":0,"x_max":441,"ha":441,"o":"m 280 343 q 243 343 210 328 q 177 312 152 286 q 128 261 114 228 q 101 194 103 159 q 175 186 246 212 q 317 239 388 266 q 375 300 346 322 q 318 343 280 343 z m 438 243 q 356 212 274 182 q 192 151 110 120 q 122 82 156 58 q 189 34 236 34 q 267 34 296 45 q 324 56 347 76 q 353 68 358 60 q 364 53 369 45 q 340 21 305 7 q 270 -7 231 -7 q 190 -7 156 8 q 123 24 100 50 q 77 76 66 112 q 56 147 62 188 q 68 228 88 264 q 108 300 138 326 q 169 352 207 368 q 245 383 286 383 q 316 383 342 372 q 367 362 386 344 q 406 325 420 300 q 433 274 438 243 z"},"b":{"x_min":0,"x_max":538,"ha":538,"o":"m 41 40 l 115 40 l 210 710 l 139 710 l 145 750 l 257 750 l 199 337 q 196 325 194 312 q 191 300 188 288 q 197 306 214 323 q 232 340 254 354 q 277 367 304 375 q 332 383 361 383 q 402 383 436 368 q 470 352 492 326 q 515 299 526 264 q 536 228 530 188 q 524 147 504 112 q 484 76 454 50 q 423 24 385 8 q 347 -7 306 -7 q 276 -7 250 1 q 225 9 206 22 q 187 35 175 52 q 163 69 159 86 q 157 75 156 64 q 155 52 153 40 l 147 0 l 35 0 z m 488 188 q 492 220 484 248 q 477 277 459 298 q 441 319 414 331 q 388 343 355 343 q 322 343 292 331 q 262 319 238 298 q 214 277 198 248 q 182 220 178 188 q 173 156 181 128 q 189 100 207 79 q 225 58 252 46 q 278 34 311 34 q 344 34 374 46 q 404 58 428 79 q 452 100 468 128 q 483 156 488 188 z"},"%":{"x_min":0,"x_max":726,"ha":726,"o":"m 427 112 q 422 80 441 58 q 460 37 492 37 q 524 37 548 58 q 572 80 577 112 q 582 143 563 165 q 544 187 512 187 q 480 187 456 165 q 432 143 427 112 z m 486 -4 q 462 -4 442 5 q 422 14 408 30 q 394 45 388 66 q 382 88 385 112 q 388 136 400 157 q 413 178 431 194 q 449 209 472 218 q 494 227 518 227 q 542 227 562 218 q 582 209 596 194 q 610 178 616 157 q 623 136 619 112 q 616 88 604 66 q 591 45 573 30 q 555 14 532 5 q 510 -4 486 -4 z m 162 388 q 157 357 176 336 q 195 314 227 314 q 259 314 283 336 q 307 357 312 388 q 317 420 298 442 q 279 463 247 463 q 215 463 191 442 q 167 420 162 388 z m 221 273 q 197 273 177 282 q 157 291 143 306 q 129 322 122 344 q 116 365 120 389 q 123 413 136 434 q 148 455 166 470 q 184 486 206 495 q 229 504 253 504 q 277 504 297 495 q 317 486 330 470 q 344 455 350 434 q 357 413 354 389 q 351 365 338 344 q 326 322 308 306 q 290 291 268 282 q 245 273 221 273 z m 158 0 q 251 126 342 250 q 434 374 527 500 l 573 500 q 480 374 388 250 q 297 126 204 0 z"},"m":{"x_min":0,"x_max":828,"ha":828,"o":"m 605 40 l 683 40 l 713 260 q 716 292 698 316 q 680 340 638 342 q 608 342 579 332 q 550 322 526 304 q 503 286 486 262 q 470 237 465 208 l 442 40 l 516 40 l 511 0 l 317 0 l 322 40 l 400 40 l 431 260 q 434 292 416 316 q 398 340 356 342 q 325 342 296 332 q 267 321 243 303 q 219 285 202 260 q 186 235 182 205 l 159 40 l 233 40 l 228 0 l 35 0 l 40 40 l 118 40 l 159 335 l 88 335 l 93 375 l 199 375 l 195 340 q 193 323 192 309 q 192 295 190 278 q 217 326 264 354 q 312 382 369 383 q 420 383 448 356 q 476 328 475 283 q 503 328 550 355 q 596 382 651 383 q 706 383 734 352 q 762 321 757 271 l 724 40 l 798 40 l 793 0 l 600 0 z"},"#":{"x_min":0,"x_max":571,"ha":571,"o":"m 208 393 q 199 357 190 322 q 181 286 171 251 l 313 251 q 323 286 332 322 q 341 357 350 393 z m 248 0 l 302 210 l 160 210 l 106 0 l 64 0 l 118 210 l 11 210 q 14 221 16 230 q 19 240 22 251 l 129 251 q 139 286 148 322 q 157 357 166 393 l 60 393 q 62 403 64 413 q 67 423 69 433 l 176 433 q 190 486 204 538 q 218 590 232 643 l 274 643 q 260 590 246 538 q 232 486 218 433 l 360 433 q 374 486 388 538 q 402 590 416 643 l 458 643 q 444 590 430 538 q 416 486 402 433 l 525 433 q 523 423 520 413 q 517 403 515 393 l 392 393 q 383 357 374 322 q 365 286 355 251 l 477 251 q 475 240 472 230 q 469 221 467 210 l 344 210 l 290 0 z"},",":{"x_min":0,"x_max":200,"ha":200,"o":"m 155 86 q 126 34 98 -17 q 69 -68 40 -120 l 2 -120 q 29 -68 55 -17 q 81 34 108 86 z"},"n":{"x_min":0,"x_max":545,"ha":545,"o":"m 322 40 l 400 40 l 431 260 q 434 292 416 316 q 398 340 356 342 q 325 342 296 332 q 267 321 243 303 q 219 285 202 260 q 186 235 182 205 l 159 40 l 233 40 l 228 0 l 35 0 l 40 40 l 118 40 l 159 335 l 88 335 l 93 375 l 199 375 l 195 340 q 193 323 192 309 q 192 295 190 278 q 217 325 265 354 q 313 383 369 383 q 424 383 452 352 q 480 321 474 271 l 442 40 l 515 40 l 510 0 l 317 0 z"},"h":{"x_min":0,"x_max":545,"ha":545,"o":"m 322 40 l 400 40 l 431 260 q 434 292 416 316 q 398 340 356 342 q 325 342 296 332 q 267 321 243 303 q 219 285 202 260 q 186 235 182 205 l 159 40 l 233 40 l 228 0 l 35 0 l 40 40 l 118 40 l 212 710 l 138 710 l 144 750 l 259 750 l 199 323 l 190 278 q 218 326 265 354 q 312 381 369 383 q 424 383 452 352 q 480 321 474 271 l 442 40 l 515 40 l 510 0 l 317 0 z"},"z":{"x_min":0,"x_max":431,"ha":431,"o":"m 409 94 l 396 0 l 35 0 l 40 41 q 83 78 123 114 q 163 151 203 188 q 243 224 283 260 q 323 297 366 335 l 93 335 l 104 410 l 142 410 l 137 375 l 429 375 l 423 334 q 380 297 340 260 q 300 224 260 188 q 221 151 181 114 q 141 78 98 41 l 363 41 l 371 94 z"},"B":{"x_min":0,"x_max":526,"ha":526,"o":"m 40 40 l 101 40 l 188 660 l 127 660 l 133 700 l 354 700 q 401 700 438 690 q 475 680 500 659 q 524 638 534 604 q 545 571 538 525 q 530 463 493 416 q 456 369 390 352 q 419 346 444 332 q 469 318 486 296 q 504 274 512 245 q 521 216 516 180 q 510 135 487 102 q 464 68 430 46 q 397 23 356 12 q 316 0 274 0 l 35 0 z m 183 332 l 142 40 l 275 40 q 312 40 346 49 q 380 58 407 76 q 434 94 452 120 q 470 147 475 183 q 481 222 468 250 q 455 278 430 296 q 406 315 372 324 q 337 332 299 332 z m 230 660 l 189 372 l 321 372 q 392 372 440 414 q 487 455 496 522 q 506 596 467 628 q 428 660 358 660 z"},"K":{"x_min":0,"x_max":686,"ha":686,"o":"m 463 40 l 523 40 q 466 128 409 216 q 352 305 295 394 l 196 311 q 187 243 178 176 q 169 108 159 40 l 241 40 l 236 0 l 35 0 l 40 40 l 117 40 l 204 660 l 127 660 l 133 700 l 326 700 l 321 660 l 246 660 l 207 386 q 206 378 204 371 q 203 364 201 356 l 222 377 l 558 660 l 505 660 l 511 700 l 704 700 l 698 660 l 612 660 l 327 421 q 390 325 451 230 q 512 135 574 40 l 656 40 l 651 0 l 458 0 z"},"R":{"x_min":0,"x_max":572,"ha":572,"o":"m 40 40 l 101 40 l 188 660 l 127 660 l 133 700 l 344 700 q 375 700 411 690 q 447 680 476 658 q 505 636 522 601 q 540 566 533 517 q 522 445 477 398 q 432 350 357 335 l 454 40 l 542 40 l 537 0 l 423 0 l 313 331 q 302 330 290 330 q 278 329 267 329 l 183 329 l 142 40 l 241 40 l 236 0 l 35 0 z m 189 370 l 292 370 q 344 370 380 384 q 417 398 440 420 q 464 442 476 468 q 488 493 491 517 q 495 545 485 571 q 475 597 454 617 q 433 637 402 648 q 372 660 334 660 l 230 660 z"},"T":{"x_min":0,"x_max":623,"ha":623,"o":"m 214 40 l 296 40 l 383 660 l 167 660 l 151 546 l 111 546 l 133 700 l 686 700 l 664 546 l 624 546 l 640 660 l 425 660 l 337 40 l 415 40 l 410 0 l 209 0 z"},"P":{"x_min":0,"x_max":495,"ha":495,"o":"m 40 40 l 101 40 l 188 660 l 127 660 l 133 700 l 344 700 q 375 700 411 690 q 447 680 476 658 q 505 636 522 601 q 540 566 533 517 q 520 431 458 380 q 396 329 293 329 l 183 329 l 142 40 l 241 40 l 236 0 l 35 0 z m 189 370 l 292 370 q 344 370 380 384 q 417 398 440 420 q 464 442 476 468 q 488 493 491 517 q 495 545 485 571 q 475 597 454 617 q 433 637 402 648 q 372 660 334 660 l 230 660 z"},"|":{"x_min":0,"x_max":240,"ha":240,"o":"m 96 -232 l 226 700 l 268 700 l 138 -232 z"},"t":{"x_min":0,"x_max":314,"ha":314,"o":"m 208 619 l 250 619 l 216 375 l 331 375 l 325 334 l 210 334 l 169 40 l 251 40 l 246 0 l 122 0 l 168 334 l 81 334 l 87 375 l 174 375 z"},"M":{"x_min":0,"x_max":967,"ha":967,"o":"m 922 700 l 1027 700 l 1021 660 l 940 660 l 853 40 l 937 40 l 932 0 l 731 0 l 736 40 l 811 40 l 887 575 q 887 576 888 582 q 889 588 890 594 q 892 601 893 607 q 894 613 894 615 q 890 610 885 604 q 880 597 873 589 q 855 569 829 540 q 803 511 772 477 q 741 443 706 405 q 672 367 638 329 q 603 291 570 254 q 536 218 508 187 q 452 277 412 340 q 373 403 344 450 q 315 496 294 530 q 272 564 252 596 l 241 615 q 240 604 240 594 q 239 585 238 575 l 163 40 l 241 40 l 236 0 l 35 0 l 40 40 l 121 40 l 208 660 l 127 660 l 133 700 l 238 700 q 252 678 284 626 q 316 575 356 510 q 397 446 440 378 q 482 310 517 255 q 619 366 720 478 q 820 589 922 700 z"},"g":{"x_min":0,"x_max":539,"ha":539,"o":"m 482 375 l 591 375 l 585 335 l 510 335 l 458 -35 q 451 -84 430 -124 q 410 -163 380 -191 q 351 -219 314 -234 q 278 -249 238 -250 q 196 -249 156 -234 q 115 -219 92 -190 l 126 -159 q 145 -183 177 -195 q 209 -207 243 -207 q 274 -207 303 -194 q 332 -182 356 -159 q 380 -136 396 -104 q 412 -71 418 -32 l 427 40 q 430 51 432 62 q 435 74 438 85 q 427 67 410 50 q 393 34 370 22 q 348 9 322 1 q 295 -7 266 -7 q 225 -7 191 8 q 157 24 134 50 q 111 76 100 112 q 90 147 96 188 q 102 228 122 264 q 142 299 172 326 q 203 352 241 368 q 279 383 320 383 q 349 383 374 374 q 399 366 418 352 q 437 339 450 322 q 462 304 466 287 q 470 309 474 331 q 478 353 482 375 z m 138 188 q 133 156 141 128 q 149 100 167 79 q 185 58 212 46 q 238 34 271 34 q 304 34 334 46 q 364 58 388 79 q 412 100 428 128 q 443 156 448 188 q 452 220 444 248 q 436 277 418 298 q 400 319 374 331 q 347 343 314 343 q 281 343 252 331 q 222 319 198 298 q 174 277 158 248 q 142 220 138 188 z"},"j":{"x_min":0,"x_max":184,"ha":184,"o":"m 61 375 l 175 375 l 122 -4 q 114 -63 90 -107 q 67 -151 32 -180 l 6 -150 q 34 -125 54 -89 q 74 -53 80 -5 l 128 335 l 55 335 z m 142 508 q 144 522 155 532 q 166 541 179 541 q 192 541 200 532 q 209 522 207 508 q 205 494 194 484 q 183 475 170 475 q 157 475 148 484 q 140 494 142 508 z"},"i":{"x_min":0,"x_max":263,"ha":263,"o":"m 40 40 l 117 40 l 159 335 l 81 335 l 87 375 l 206 375 l 159 40 l 233 40 l 228 0 l 35 0 z m 172 508 q 174 522 185 532 q 196 541 209 541 q 222 541 230 532 q 239 522 237 508 q 235 494 224 484 q 212 475 200 475 q 187 475 178 484 q 170 494 172 508 z"},"y":{"x_min":0,"x_max":601,"ha":601,"o":"m 97 -210 l 182 -210 q 214 -158 248 -106 q 282 -53 315 -2 q 284 83 254 166 q 223 250 193 335 l 116 335 l 122 375 l 307 375 l 302 335 l 238 335 q 265 260 292 186 q 320 113 343 38 q 385 110 434 185 q 482 260 530 335 l 472 335 l 478 375 l 653 375 l 647 335 l 575 335 q 487 198 400 62 q 314 -73 226 -210 l 290 -210 l 285 -250 l 92 -250 z"},"@":{"x_min":0,"x_max":990,"ha":990,"o":"m 332 188 q 327 156 335 128 q 343 100 361 79 q 379 58 406 46 q 433 34 466 34 q 499 34 528 46 q 558 58 582 79 q 606 100 622 128 q 637 156 642 188 q 647 220 639 248 q 631 277 613 298 q 595 319 568 331 q 542 343 509 343 q 476 343 446 331 q 417 319 393 298 q 369 277 353 248 q 337 220 332 188 z m 894 188 q 883 131 863 94 q 843 58 818 37 q 792 16 764 8 q 736 0 710 0 l 620 0 l 626 40 q 628 52 630 64 q 631 75 633 86 q 624 69 607 52 q 590 35 568 22 q 545 9 518 1 q 490 -7 460 -7 q 419 -7 385 8 q 351 24 328 50 q 305 76 294 112 q 284 147 290 188 q 296 228 316 264 q 337 299 368 326 q 398 352 436 368 q 474 383 515 383 q 544 383 568 374 q 593 366 612 352 q 631 339 643 322 q 655 305 660 287 q 664 309 668 331 q 672 353 677 375 l 711 375 l 664 40 l 719 40 q 768 40 803 75 q 838 110 852 188 q 863 264 844 331 q 825 398 782 448 q 740 497 678 526 q 615 554 540 554 q 464 554 394 526 q 323 497 266 448 q 210 398 172 331 q 134 264 123 188 q 113 112 132 46 q 152 -20 194 -70 q 237 -119 300 -148 q 362 -176 437 -176 q 498 -176 554 -158 q 611 -140 662 -108 l 683 -138 q 628 -176 562 -196 q 497 -217 431 -217 q 347 -217 278 -185 q 208 -153 161 -98 q 114 -43 92 31 q 70 105 82 189 q 94 273 136 347 q 178 421 241 476 q 304 531 383 563 q 462 595 546 595 q 630 595 700 563 q 769 531 816 476 q 863 421 884 347 q 906 273 894 188 z"},".":{"x_min":0,"x_max":163,"ha":163,"o":"m 52 33 q 54 47 66 56 q 77 66 90 66 q 102 66 111 56 q 120 47 118 33 q 116 19 104 10 q 93 0 81 0 q 68 0 59 10 q 50 19 52 33 z"},"p":{"x_min":0,"x_max":538,"ha":538,"o":"m 3 -210 l 68 -210 l 145 335 l 71 335 l 77 375 l 184 375 q 182 353 180 330 q 177 307 175 285 q 184 303 202 320 q 219 338 242 352 q 265 365 292 374 q 320 382 349 382 q 390 382 424 366 q 458 351 480 325 q 503 299 514 263 q 524 227 519 187 q 513 147 492 112 q 472 76 442 50 q 411 23 373 8 q 335 -8 294 -8 q 264 -8 239 0 q 214 8 196 20 q 177 33 164 50 q 152 66 147 84 l 147 44 l 111 -210 l 195 -210 l 191 -250 l -2 -250 z m 477 187 q 481 220 473 248 q 465 276 447 296 q 429 317 402 329 q 376 341 343 341 q 310 341 280 329 q 250 317 226 296 q 202 276 186 248 q 170 220 166 187 q 161 155 169 126 q 177 98 195 77 q 213 56 240 44 q 266 32 299 32 q 332 32 362 44 q 392 56 416 77 q 440 98 456 126 q 472 155 477 187 z"},"X":{"x_min":0,"x_max":704,"ha":704,"o":"m 133 700 l 334 700 l 329 660 l 271 660 q 304 597 336 534 q 368 471 400 408 l 407 390 l 420 408 l 617 660 l 560 660 l 565 700 l 767 700 l 761 660 l 667 660 q 607 582 548 506 q 488 431 428 354 q 467 275 508 197 q 548 119 588 40 l 674 40 l 669 0 l 467 0 l 472 40 l 536 40 l 418 271 q 412 283 406 297 q 400 311 393 323 l 381 304 q 329 237 278 172 q 226 106 174 40 l 241 40 l 236 0 l 35 0 l 40 40 l 123 40 l 374 359 l 221 660 l 127 660 z"},"*":{"x_min":0,"x_max":335,"ha":335,"o":"m 208 575 q 230 562 251 549 q 272 536 293 522 q 287 513 280 504 q 273 494 266 484 l 182 538 q 177 512 174 486 q 170 460 165 434 l 125 434 l 140 538 q 92 513 42 486 q 38 496 34 506 q 30 515 26 525 q 50 538 74 550 q 99 563 124 576 q 103 590 82 603 q 62 616 41 630 q 47 639 54 648 q 60 657 65 665 q 87 651 108 638 q 129 625 150 611 l 166 720 l 210 720 q 205 693 202 666 q 198 639 193 611 q 219 625 244 638 q 269 651 294 664 q 303 648 309 629 q 284 615 259 602 q 234 589 208 575 z"},"Y":{"x_min":0,"x_max":746,"ha":746,"o":"m 280 40 l 354 40 l 385 265 q 340 364 295 462 q 250 561 205 660 l 127 660 l 133 700 l 334 700 l 329 660 l 256 660 q 294 577 332 495 q 370 413 407 330 l 415 302 l 416 302 l 431 330 l 674 660 l 603 660 l 608 700 l 809 700 l 804 660 l 725 660 q 652 560 580 462 q 507 364 434 265 l 403 40 l 481 40 l 476 0 l 275 0 z"},"c":{"x_min":0,"x_max":391,"ha":391,"o":"m 361 36 q 332 16 300 4 q 267 -7 231 -7 q 190 -7 156 8 q 123 24 100 50 q 77 76 66 112 q 56 147 62 188 q 68 228 88 264 q 108 300 138 326 q 169 352 207 368 q 245 383 286 383 q 322 383 352 372 q 382 360 404 340 l 390 242 l 352 242 l 363 316 q 346 329 325 336 q 304 343 280 343 q 247 343 217 331 q 187 319 164 298 q 140 277 124 248 q 108 220 104 188 q 99 156 107 128 q 115 100 133 79 q 151 58 177 46 q 203 34 236 34 q 265 34 291 42 q 317 51 339 67 z"},"!":{"x_min":0,"x_max":201,"ha":201,"o":"m 48 22 q 36 22 28 32 q 19 41 21 55 q 22 69 34 78 q 46 88 58 88 q 70 88 78 78 q 87 69 85 55 q 83 41 72 32 q 61 22 48 22 z m 130 750 l 171 750 l 89 166 l 48 166 z"},"/":{"x_min":0,"x_max":345,"ha":345,"o":"m -36 -19 q 61 171 156 358 q 251 546 348 736 l 390 736 q 293 546 198 358 q 103 171 6 -19 z"},"[":{"x_min":0,"x_max":338,"ha":338,"o":"m 20 -149 l 145 746 l 320 746 l 314 705 l 182 705 l 68 -108 l 200 -108 l 195 -149 z"},"6":{"x_min":0,"x_max":520,"ha":520,"o":"m 75 199 q 70 164 79 134 q 88 104 108 82 q 127 59 155 46 q 183 33 218 33 q 252 33 284 46 q 317 59 344 82 q 370 104 388 134 q 406 164 411 199 q 415 233 406 264 q 397 294 377 317 q 357 340 328 353 q 299 366 265 366 q 230 366 198 353 q 166 340 140 317 q 115 294 98 264 q 80 233 75 199 z m 32 195 q 42 267 82 330 q 121 392 177 446 q 233 501 298 548 q 364 594 426 635 q 431 627 436 618 q 442 609 448 601 q 331 531 261 468 q 191 404 158 358 q 180 380 210 394 q 239 407 271 407 q 314 407 350 390 q 386 374 410 346 q 435 318 446 280 q 458 242 452 199 q 446 156 424 118 q 402 81 370 53 q 337 25 296 8 q 255 -8 212 -8 q 170 -8 134 8 q 99 24 74 52 q 50 79 38 116 q 27 153 32 195 z"},"r":{"x_min":0,"x_max":344,"ha":344,"o":"m 40 40 l 118 40 l 159 335 l 88 335 l 93 375 l 199 375 l 195 340 q 193 323 192 309 q 192 295 190 278 q 204 302 224 322 q 244 341 267 354 q 290 368 314 376 q 339 383 362 383 l 354 342 q 322 341 293 330 q 264 320 240 302 q 217 284 202 259 q 186 234 182 205 l 159 40 l 233 40 l 228 0 l 35 0 z"},"2":{"x_min":0,"x_max":505,"ha":505,"o":"m 114 41 l 387 41 l 402 146 l 442 146 l 421 0 l 6 0 q 78 62 146 122 q 214 181 268 238 q 322 294 358 346 q 393 399 400 446 q 407 495 397 528 q 387 560 368 580 q 349 600 324 608 q 300 617 278 617 q 233 617 202 601 q 171 585 151 562 q 131 539 121 512 q 111 485 108 463 q 98 396 132 353 l 103 328 q 80 351 70 388 q 61 424 66 463 q 72 503 90 538 q 107 574 134 600 q 162 627 200 642 q 238 658 284 658 q 326 658 358 642 q 391 627 412 600 q 432 573 440 536 q 449 500 443 458 q 435 404 403 350 q 371 297 325 245 q 279 193 224 142 q 168 91 114 41 z"},"{":{"x_min":0,"x_max":291,"ha":291,"o":"m 89 275 l 97 321 q 121 322 138 336 q 156 349 168 369 q 179 389 186 412 q 192 436 195 456 l 218 628 q 224 674 236 698 q 248 722 263 732 q 278 743 296 744 q 314 746 334 746 l 381 746 l 376 705 l 324 705 q 293 705 279 682 q 265 658 256 597 l 236 455 q 230 414 220 388 q 211 361 200 344 q 188 326 175 316 q 162 306 149 299 q 160 292 170 282 q 180 271 187 253 q 194 235 196 208 q 198 182 192 142 l 173 1 q 164 -61 171 -84 q 178 -108 209 -108 l 261 -108 l 255 -148 l 208 -148 q 187 -148 169 -146 q 151 -145 140 -132 q 128 -120 124 -92 q 121 -63 129 -9 l 149 140 q 152 160 152 184 q 152 207 146 227 q 140 247 126 260 q 113 274 89 275 z"},"9":{"x_min":0,"x_max":525,"ha":525,"o":"m 436 427 q 441 461 432 492 q 423 522 404 544 q 384 567 356 580 q 327 593 293 593 q 258 593 226 580 q 193 567 167 544 q 141 522 123 492 q 105 461 100 427 q 95 392 104 362 q 114 332 134 309 q 153 286 182 273 q 211 260 246 260 q 280 260 312 273 q 345 286 370 309 q 396 332 414 362 q 431 392 436 427 z m 478 427 q 468 356 428 294 q 389 232 332 178 q 276 124 211 78 q 146 32 85 -8 q 74 8 63 25 q 180 96 250 159 q 320 222 353 269 q 330 246 301 233 q 272 220 240 220 q 196 220 160 236 q 125 252 100 280 q 75 308 64 346 q 53 384 59 427 q 65 470 87 508 q 109 545 142 573 q 174 601 214 618 q 255 634 298 634 q 341 634 377 618 q 413 601 438 573 q 462 545 473 508 q 484 470 478 427 z"}," ":{"x_min":0,"x_max":300,"ha":300,"o":""},"I":{"x_min":0,"x_max":271,"ha":271,"o":"m 40 40 l 118 40 l 205 660 l 127 660 l 133 700 l 334 700 l 329 660 l 247 660 l 159 40 l 241 40 l 236 0 l 35 0 z"},"H":{"x_min":0,"x_max":738,"ha":738,"o":"m 600 700 l 801 700 l 796 660 l 718 660 l 631 40 l 708 40 l 703 0 l 502 0 l 507 40 l 589 40 l 630 333 l 200 333 l 159 40 l 241 40 l 236 0 l 35 0 l 40 40 l 118 40 l 205 660 l 127 660 l 133 700 l 334 700 l 329 660 l 247 660 l 206 373 l 636 373 l 676 660 l 595 660 z"},"4":{"x_min":0,"x_max":515,"ha":515,"o":"m 243 40 l 320 40 l 340 183 l 16 183 l 449 658 l 388 224 l 485 224 l 479 183 l 382 183 l 362 40 l 445 40 l 439 0 l 238 0 z m 389 535 l 107 224 l 346 224 z"},"~":{"x_min":0,"x_max":489,"ha":489,"o":"m 272 491 q 258 508 248 514 q 237 519 223 519 q 215 519 205 517 q 195 515 186 510 q 176 504 167 494 q 158 484 154 468 q 148 469 142 469 q 135 469 130 470 q 133 489 143 503 q 153 517 166 526 q 180 536 196 540 q 211 545 225 545 q 246 545 262 536 q 279 526 293 509 q 306 492 317 486 q 328 481 342 481 q 349 481 359 483 q 369 485 379 490 q 389 496 398 506 q 406 516 410 532 q 416 531 422 531 q 429 531 435 530 q 427 492 398 474 q 369 455 340 455 q 319 455 302 464 q 286 474 272 491 z"},"D":{"x_min":0,"x_max":632,"ha":632,"o":"m 40 40 l 103 40 l 190 660 l 127 660 l 133 700 l 343 700 q 415 700 476 676 q 536 651 578 606 q 619 560 638 495 q 657 430 646 350 q 637 291 608 229 q 579 167 526 116 q 473 65 395 32 q 317 0 211 0 l 35 0 z m 232 660 l 144 40 l 231 40 q 314 40 380 66 q 446 93 493 136 q 540 180 568 236 q 597 291 605 350 q 615 421 598 478 q 582 536 545 576 q 508 617 454 638 q 401 660 337 660 z"},"^":{"x_min":0,"x_max":470,"ha":470,"o":"m 244 660 q 268 615 292 570 q 315 524 339 479 l 306 479 q 288 509 270 540 q 253 570 236 600 q 210 570 184 540 q 158 509 132 479 l 99 479 q 135 524 172 570 q 208 615 244 660 z"},"0":{"x_min":0,"x_max":616,"ha":616,"o":"m 36 327 q 45 386 70 446 q 95 505 136 552 q 176 599 231 628 q 286 658 354 658 q 421 658 466 628 q 512 598 538 550 q 565 502 573 442 q 581 383 572 324 q 561 252 530 191 q 500 130 456 86 q 413 42 360 18 q 308 -7 255 -7 q 202 -7 157 18 q 112 44 82 88 q 51 133 38 194 q 25 255 36 327 z m 79 327 q 70 262 80 208 q 91 154 116 116 q 142 77 180 55 q 218 33 262 33 q 305 33 349 54 q 393 75 430 113 q 467 151 494 204 q 521 258 530 323 q 539 382 531 435 q 523 488 500 528 q 477 569 438 593 q 400 617 347 617 q 294 617 249 594 q 204 571 169 531 q 134 491 110 438 q 87 385 79 327 z"},"F":{"x_min":0,"x_max":557,"ha":557,"o":"m 40 40 l 112 40 l 199 660 l 127 660 l 133 700 l 620 700 l 598 546 l 558 546 l 574 660 l 241 660 l 200 373 l 535 373 l 529 333 l 194 333 l 153 40 l 241 40 l 236 0 l 35 0 z"},"`":{"x_min":0,"x_max":200,"ha":200,"o":"m 27 612 q 44 579 59 546 q 74 512 90 479 l 57 479 q 38 512 20 546 q 3 579 -15 612 z"},"k":{"x_min":0,"x_max":503,"ha":503,"o":"m 288 40 l 336 40 q 312 80 288 120 q 265 159 242 199 l 169 139 l 155 40 l 233 40 l 228 0 l 35 0 l 40 40 l 114 40 l 208 710 l 138 710 l 143 750 l 255 750 l 176 190 l 352 335 l 291 335 l 297 375 l 482 375 l 476 335 l 404 335 q 369 306 340 281 q 311 256 276 227 q 303 179 330 133 q 358 87 386 40 l 473 40 l 468 0 l 283 0 z"},"u":{"x_min":0,"x_max":539,"ha":539,"o":"m 88 375 l 203 375 l 167 115 q 165 83 183 59 q 201 35 242 33 q 273 33 302 44 q 331 54 355 72 q 379 90 395 115 q 411 140 416 170 l 439 335 l 365 335 l 370 375 l 486 375 l 438 36 l 509 36 l 504 0 l 396 0 l 402 52 l 408 97 q 381 49 333 20 q 285 -8 230 -8 q 175 -8 147 23 q 119 54 124 104 l 156 335 l 82 335 z"},"]":{"x_min":0,"x_max":342,"ha":342,"o":"m 313 746 l 188 -149 l 14 -149 l 19 -108 l 151 -108 l 265 705 l 133 705 l 138 746 z"},"U":{"x_min":0,"x_max":696,"ha":696,"o":"m 134 700 l 335 700 l 330 660 l 247 660 l 187 229 q 180 181 189 144 q 198 108 220 83 q 243 58 276 45 q 310 32 353 32 q 395 32 432 45 q 470 58 500 83 q 529 108 548 144 q 568 181 575 229 l 636 660 l 553 660 l 559 700 l 760 700 l 754 660 l 677 660 l 616 226 q 608 169 584 125 q 560 81 524 52 q 488 22 443 7 q 398 -8 348 -8 q 297 -8 256 7 q 215 22 188 52 q 160 81 148 125 q 136 169 144 226 l 205 660 l 128 660 z"},"o":{"x_min":0,"x_max":465,"ha":465,"o":"m 63 188 q 69 228 89 264 q 109 300 139 326 q 169 353 207 368 q 245 384 286 384 q 327 384 361 368 q 395 353 418 326 q 442 300 452 264 q 463 228 457 188 q 451 147 431 112 q 411 76 380 50 q 350 24 312 8 q 273 -7 232 -7 q 191 -7 158 8 q 124 24 101 50 q 78 76 68 112 q 57 147 63 188 z m 104 188 q 99 156 108 128 q 116 100 134 79 q 152 58 178 46 q 204 34 236 34 q 268 34 298 46 q 328 58 352 79 q 376 100 392 128 q 408 156 413 188 q 417 220 409 248 q 401 276 383 297 q 365 318 338 330 q 312 343 280 343 q 248 343 218 330 q 188 318 164 297 q 140 276 124 248 q 108 220 104 188 z"},"N":{"x_min":0,"x_max":846,"ha":846,"o":"m 45 40 l 126 40 l 212 660 l 131 660 l 137 700 l 245 700 l 686 88 l 701 62 l 703 94 l 782 660 l 706 660 l 712 700 l 913 700 l 907 660 l 823 660 l 727 -32 l 263 607 l 248 629 l 246 601 l 167 40 l 246 40 l 240 0 l 39 0 z"},"+":{"x_min":0,"x_max":543,"ha":543,"o":"m 219 51 l 242 211 l 83 211 l 89 252 l 248 252 l 270 411 l 312 411 l 290 252 l 449 252 l 443 211 l 284 211 l 261 51 z"},"G":{"x_min":0,"x_max":609,"ha":609,"o":"m 565 298 l 529 40 q 486 17 439 4 q 392 -10 341 -10 q 267 -10 206 18 q 145 46 103 94 q 61 143 42 208 q 23 273 33 347 q 43 421 80 486 q 118 552 174 600 q 229 649 298 678 q 367 706 441 706 q 492 706 536 693 q 579 680 617 656 l 589 622 q 557 643 518 654 q 479 666 435 666 q 370 666 309 640 q 248 615 200 572 q 151 528 118 470 q 84 412 75 346 q 66 281 82 224 q 99 166 136 123 q 172 80 226 55 q 279 30 344 30 q 420 30 491 64 l 518 258 l 374 258 l 379 298 z"},"q":{"x_min":0,"x_max":540,"ha":540,"o":"m 308 -210 l 392 -210 l 427 44 q 429 54 432 64 q 435 74 437 84 q 427 66 410 50 q 393 33 370 20 q 348 8 322 0 q 295 -8 265 -8 q 224 -8 190 8 q 156 23 134 50 q 111 76 100 112 q 90 147 96 187 q 102 227 122 263 q 142 299 172 325 q 203 351 241 366 q 279 382 320 382 q 349 382 374 374 q 399 365 418 352 q 437 338 450 320 q 462 303 467 285 q 470 307 474 330 q 479 352 482 375 l 592 375 l 586 335 l 510 335 l 434 -210 l 502 -210 l 497 -250 l 303 -250 z m 138 187 q 133 155 141 126 q 149 98 167 77 q 185 56 212 44 q 238 32 271 32 q 304 32 334 44 q 364 56 388 77 q 412 98 428 126 q 443 155 448 187 q 452 220 444 248 q 436 276 418 296 q 400 317 374 329 q 347 341 314 341 q 281 341 252 329 q 222 317 198 296 q 174 276 158 248 q 142 220 138 187 z"},"d":{"x_min":0,"x_max":538,"ha":538,"o":"m 398 40 q 400 52 401 64 q 402 75 404 86 q 395 69 378 52 q 362 35 340 22 q 317 9 290 1 q 262 -7 232 -7 q 191 -7 157 8 q 123 24 100 50 q 77 76 66 112 q 56 147 62 188 q 68 228 88 264 q 108 299 138 326 q 169 352 207 368 q 245 383 286 383 q 315 383 340 375 q 364 367 383 354 q 402 340 414 323 q 427 306 432 288 q 434 309 436 330 q 438 351 440 372 l 488 710 l 417 710 l 423 750 l 535 750 l 435 40 l 509 40 l 503 0 l 392 0 z m 104 188 q 99 156 107 128 q 115 100 133 79 q 151 58 178 46 q 204 34 237 34 q 270 34 300 46 q 330 58 354 79 q 378 100 394 128 q 409 156 414 188 q 418 220 410 248 q 402 277 384 298 q 366 319 340 331 q 313 343 280 343 q 247 343 218 331 q 188 319 164 298 q 140 277 124 248 q 108 220 104 188 z"},"1":{"x_min":0,"x_max":265,"ha":265,"o":"m 9 40 l 89 40 l 168 609 l 73 609 l 79 650 l 216 650 l 131 40 l 210 40 l 205 0 l 4 0 z"},"5":{"x_min":0,"x_max":543,"ha":543,"o":"m 476 650 l 462 549 l 422 549 l 430 609 l 225 609 l 195 392 q 212 399 230 403 q 247 407 266 407 q 309 407 345 391 q 381 375 406 347 q 431 319 442 282 q 454 244 448 201 q 442 158 420 120 q 397 82 364 54 q 331 25 290 8 q 250 -8 207 -8 q 165 -8 130 8 q 96 23 72 50 l 107 78 q 125 57 152 45 q 179 33 212 33 q 247 33 280 46 q 313 60 339 83 q 365 106 383 136 q 401 167 406 201 q 410 235 401 265 q 392 295 372 318 q 352 340 323 353 q 294 366 259 366 q 224 366 193 354 q 162 342 142 321 l 189 650 z"}}}
